<?xml version="1.0" encoding="UTF-8"?>
<svg width="97px" height="82px" viewBox="0 0 97 82" version="1.1" xmlns="http://www.w3.org/2000/svg" xmlns:xlink="http://www.w3.org/1999/xlink">
    <title>3BAD2A0F-E7F5-49BE-96CB-C2E901821376</title>
    <g id="Page-1" stroke="none" stroke-width="1" fill="none" fill-rule="evenodd">
        <g id="Desktop-HD" transform="translate(-1031.000000, -107.000000)" fill="#10262B" fill-rule="nonzero">
            <g id="noun_Crown_1301360" transform="translate(1031.000000, 107.000000)">
                <path d="M93.1,12.3 C93.7,12.9 93,13.7 93.9,14.4 C94.5,14.7 95.5,13.2 96.5,14.2 C96.3,14.9 95.7,15.1 95.2,15.1 C93.2,15.1 92.7,16.3 92.2,18 C89.6,27.6 86.7,37 84.3,46.6 C82.9,52.2 81.2,57.7 79.5,63.2 C78.7,65.7 77.8,68.1 77.5,70.7 C77.2,72.8 76.1,74.6 75.6,76.7 C75.4,77.3 75,77.5 74.4,77.6 C68.3,79.2 61.9,79.6 55.7,80.6 C53.6,81 51.3,80.8 49.1,80.8 C47.8,80.8 46.7,81.5 45.5,81.4 C42.4,81.4 39.4,81.5 36.3,81.5 C34.4,81.5 32.5,80.7 30.8,80 C27.9,78.9 25,78.3 21.9,78.2 C21,78.2 20.6,77.8 20.3,76.9 C17.9,70.5 15.5,64.1 14,57.4 C13.6,55.8 13.2,54.2 12.5,52.7 C11.2,49.7 10.4,46.5 9.5,43.4 C7.2,35.2 4.6,27.2 1.2,19.4 C-3.10862447e-14,16.7 1.8,14.3 4.9,14.9 C10.2,15.9 15.4,17.2 20.1,20.1 C20.7,20.5 21.4,21.2 22.2,21 C24.4,20.3 25.9,21.7 26.8,23.2 C28.6,26.3 31.8,27.4 34.4,30.2 C35.1,27.6 35.7,25.4 36.2,23.2 C36.9,19.7 38.3,16.4 39.5,13.1 C40.1,11.6 41.5,10.9 42.3,9.7 C43.4,8 44.6,6.4 45.5,4.6 C46.3,3 47.6,2 48.8,0.2 C49.2,1.3 49.5,2.1 49.7,2.8 C50.1,4.2 50.7,5.5 51.8,6.5 C55.5,9.9 57.8,14.1 59.5,18.8 C60.7,22.1 62.6,25.2 63.4,28.7 C63.5,29.1 63.8,29.6 64.4,29.6 C64.8,28.9 64,28.2 64.4,27.4 C64.8,27 64.8,27.6 64.9,27.7 C65.4,28.9 65.9,29.2 66.9,28 C69.7,24.7 72.8,21.9 76.6,19.9 C81.2,17.3 85.8,14.8 90.9,13.4 C91.8,13.5 92.3,12.7 93.1,12.3 Z M27.4,74.7 C26,74.1 24.5,73.7 22.3,74 C25.4,75 25.4,75 27.4,74.7 C27.7,74.9 27.9,75.5 28.1,75.5 C30.9,75.9 33.6,76.3 36.4,76.7 C36.5,76.7 36.6,76.7 36.7,76.6 C37.7,76.3 38.8,76.3 39.8,76.3 C42.6,76.2 45.3,76 48.1,75.8 C48.1,75.7 48.1,75.5 48.1,75.4 C44.6,75.5 41.1,75.6 37.6,75.7 C44,75.1 50.4,74.6 56.8,75.6 C58.5,75.9 60.3,75.6 62.2,75.5 C60.9,73.7 58.3,74.1 57.8,71.9 C57.9,71.8 57.9,71.7 58,71.7 C59.7,72.6 61.6,73 63.1,74.3 C64.3,75.3 66,75.7 67.4,74.4 C67.3,72.3 64.9,73.2 64.3,71.5 C63.9,70.3 62.3,69.4 60.9,68.1 C62.4,68.1 63.6,68.6 64.5,67.9 C64.4,66.7 62.7,67.2 62.9,65.8 C64.7,66.3 66.3,67.7 68.3,67.5 C68.4,68.3 69.2,68.4 69.6,69.3 C67.5,68.8 65.5,67.5 63.5,69.3 C65,71.2 67.3,72.1 69.2,73.5 C69.7,73.9 70.3,73.7 70.9,73.5 C71.6,73.3 72.4,73.1 73.2,73 C75.2,72.7 75.2,72.7 75.1,70.1 C73.1,70.5 71.1,71 68.7,71.5 C70.5,70.1 72.2,69.8 73.9,69.2 C76.1,68.4 76.1,68.5 76.4,65.9 C75.7,65.4 74.9,65.8 74.2,65.7 C74.4,65.2 74.9,65.1 75.4,64.9 C77,64.4 77.5,63.1 77.8,61.7 C78,60.8 77.6,60.3 76.8,60.5 C75.6,60.8 74.4,60.6 73.4,61.7 C72.7,62.4 71.7,61.9 71.2,61.3 C70.8,60.8 71.8,60.5 72.1,60.2 C68.6,58.6 64.6,60.2 61,58.8 C64.5,58.7 67.9,58.3 71,56.7 C72,56.2 73.1,55.7 74.3,55.7 C72.9,57.2 70.5,57 68.8,58.7 C71.1,59 73,59.3 74.9,59.4 C78.1,59.6 78.8,58.9 79.4,55.9 C79.5,55.5 79.5,55.2 79.6,54.7 C77.6,54.3 76.1,56 74.2,55.8 C74.9,54.5 76.9,54.9 77.8,53.4 C75.5,53.2 73.4,53.3 71.6,52.7 C69.7,52.1 67.7,53.7 66,52.3 C68.3,52.4 70.3,51 72.8,52 C74.7,52.7 77,52.5 79.1,52.6 C80.2,52.7 81.1,51.4 80.9,50.1 C80.7,48.8 79.6,49.1 78.9,49.3 C77.6,49.6 76.3,50.1 75,50.4 C74.8,50.5 74.5,50.4 74.2,50.4 C74.7,49.7 75.7,49.8 76,49 C75.5,47.8 73.8,48.8 72.9,47.3 C75.5,48.1 77.8,47.5 80.1,48.2 C80.9,48.4 81.4,48.2 81.7,47.4 C81.8,47.1 82,46.8 81.9,46.6 C81.9,45.7 83,44.7 82.1,43.9 C81.4,43.3 80.5,44.2 79.7,44.4 C79.3,44.5 79,44.8 78.6,44.6 C78.8,43.9 80,44 79.9,42.8 C77.7,42.3 75.4,41.7 72.9,41.2 C73.5,40.5 74,40.1 74.7,40.6 C76.9,42.2 79.5,41.7 81.9,41.9 C82.7,42 83.4,41.8 83.6,40.8 C84.3,37.5 85.1,34.1 86,30.3 C83.6,32.1 82,30.6 79.8,29.7 C81.3,29 82.3,29.5 83.3,29.6 C85.7,29.8 87,28.4 86.8,25.7 C84.3,27.3 82,26.9 79.5,25.3 C80.5,24.8 81.2,25.2 81.9,25.4 C83.7,26 85.3,25.4 86.8,24.4 C87.2,24.1 87.6,23.8 87.5,23.2 C87.4,22.6 86.9,22.5 86.4,22.4 C85.6,22.2 84.7,22.3 83.9,21.8 C82.7,21.1 81.5,21.3 80.4,22 C77.3,24 73.6,25.3 71.4,28.6 C71.2,28.9 70.8,29.1 70.4,29.1 C69.1,29.3 68.3,30.2 68,31.3 C67.5,32.6 66.1,33.2 65.7,34.6 C65.5,35.2 64.9,35.1 64.2,34.8 C62.8,34.2 62.4,32.9 61.9,31.6 C61.5,30.5 60.9,30.3 59.9,30.6 C59.5,30.7 59.1,31.3 58.5,30.6 C59.1,30.4 59.6,30.2 60.1,30 C60.5,29.8 60.7,29.4 60.6,29.1 C59.9,27.6 59.2,25.9 58.2,24.6 C57.4,23.4 56.3,25 55.3,24.7 C55.1,24.6 54.8,24.6 54.4,24.6 C55.2,24.3 55.7,23.9 56.2,23.8 C57.6,23.7 57.8,23 57.3,21.9 C57.1,21.5 57.1,21.2 56.9,20.8 C56.1,19 56,18.9 54.2,19.6 C53.1,20 52,20.7 50.4,20.9 C51.6,19.7 52.8,19.4 54,18.8 C55.3,18.2 55.4,17.6 54.7,16.3 C53.9,14.8 52.6,16 51.6,15.5 C52.1,14.9 53.2,15.1 53.3,14.1 C52.3,12.2 50.6,12.2 48.4,13 C50.8,11.3 50.8,11.3 48.7,10.3 C48.5,10.2 48.4,9.8 48.1,9.7 C47.7,9.5 47.2,9.5 47.1,9.9 C46.4,12 44.6,13.4 43.6,15.4 C41.6,19.7 40.1,24.1 39.6,28.9 C39.5,29.6 39.7,30.7 38.7,30.8 C37.3,31 37.6,31.6 37.8,32.6 C38.2,34 37.8,34.6 36.4,34.7 C35.7,34.8 34.9,34.8 34.4,34.5 C32.6,33.5 30.5,32.7 29,31.2 C23.1,25.5 16.2,21.5 8.4,19.2 C7.6,19 6.8,18.6 5.9,18.4 C5.4,18.2 5,18.4 4.8,19 C4.5,20.3 5.8,22.9 7,23.6 C8.7,24.5 10.5,25.1 12.7,25.9 C10.3,26.7 8.7,24.9 6.8,25.1 C7.2,28.4 10.3,28.1 12.1,29.5 C10.9,30.2 9.7,28.5 8.4,29.6 C9.5,32.2 12.4,31.9 14.3,33.4 C12.6,34.1 11.4,32.4 9.7,32.6 C9.8,35.8 13.2,34.9 14.4,36.6 C13,36.8 12,35.8 11,36.8 C12.2,38.6 14.5,38.6 16.3,39.8 C14.7,40.4 13.5,38.8 11.9,39.6 C13.5,42.3 16.6,42.2 19.4,43.9 C16.8,43.7 15.1,42.4 13.1,42.5 C12.9,44.3 13.9,44.9 15.1,45.4 C16.6,46 18.3,46.3 20,47.8 C17.8,47.4 16.2,46.4 14.2,46.5 C16.1,50.4 20.3,49.8 23.1,51.9 C20.8,51.4 18.5,50.9 16.2,50.4 C16.1,53.5 16.4,53.9 18.9,54.8 C20.4,55.3 21.9,55.7 23.4,56.2 C21.8,56.5 20.4,56 18.9,55.6 C18.4,55.4 17.7,55.1 17.3,55.7 C16.9,56.3 17.3,57 17.8,57.5 C18.3,58.2 19.2,58.1 19.9,58.5 C21.1,59.1 22.7,59 23.7,60.2 C22.8,60.5 22,60.2 21.3,60 C20.8,59.9 20.1,59.6 19.9,60.4 C19.7,61.1 20,61.8 20.7,62.1 C22,62.6 23.3,62.9 24.5,63.3 C25.1,63.5 25.9,63.3 26.1,64.3 C24.4,64.5 22.9,63.9 21.3,63.6 C20.9,63.5 20.5,63.6 20.3,63.9 C20,64.4 20.3,64.8 20.7,65.2 C21.3,65.8 22.1,65.8 22.8,66.1 C23.8,66.4 24.9,66.7 26.3,67 C24.3,67.9 22.7,66.4 21.1,67 C20.8,68.8 21.9,69.2 23.2,69.9 C24.5,70.6 26.1,69.9 27.3,71.1 C26.1,71.6 25.1,71.3 24,71.1 C23.4,71 22.5,70.5 22.3,71.4 C22,72.5 23.1,72.4 23.8,72.7 C25.3,73.3 26.8,73.4 28.3,73.5 C28.7,73.5 29.1,73.6 29.2,74.1 C29.3,74.8 28.7,74.8 28.2,74.9 C28,74.8 27.7,74.7 27.4,74.7 Z M83.5,20.4 C86.8,21 88.3,20.2 88.9,17.6 C87.2,18.6 85.3,18.8 83.5,20.4 Z M23,22.3 C24.5,23.9 24.5,23.9 26,23.8 C25.2,23 24.6,22.2 23,22.3 Z M54.5,77.8 C53.2,77.3 51.9,77.5 50,78 C51.9,78.4 53.2,78.3 54.5,77.8 Z M71.8,73.8 C72.6,74.6 73.2,75.1 74.1,74.4 C74.2,74.3 74.3,74 74.2,73.9 C73.5,73.4 72.8,73.7 71.8,73.8 Z" id="Shape"></path>
                <path d="M75.5,35.4 C76.8,35.2 78.2,35.2 79.5,35.7 C80.6,36.1 81.6,36.5 82.9,36 C82.2,37.7 80.7,37.9 79.3,38.2 C78.6,37.4 80,37.4 79.7,36.8 C79.4,36.3 78.9,36.3 78.5,36.1 C77.5,35.6 76.3,36.4 75.5,35.4 L75.5,35.4 Z" id="Path"></path>
                <path d="M13.7,22.7 C11.1,21.5 8,21.9 5.7,20.1 C8.6,20.2 11.3,21 13.7,22.7 Z" id="Path"></path>
                <path d="M73.9,65.5 C73.4,66.5 72.4,66.6 71.5,66.7 C70.4,66.9 69.3,67.2 68.1,67.4 C67.9,67 67.1,66.3 68.1,66.2 C70.1,66.1 72,65.6 73.9,65.5 Z" id="Path"></path>
                <path d="M35.9,73.7 C34.3,73.8 32.7,74.3 30.7,73.9 C32.7,73.3 34.3,73.7 35.9,73.7 Z" id="Path"></path>
                <path d="M82.3,33.8 C80.8,32.8 79.7,32.7 78.6,32.3 C80.2,31.4 80.2,31.4 82.3,33.8 Z" id="Path"></path>
                <path d="M70.6,47.3 C69.8,47.7 68.9,47.7 67.9,47.3 C68.7,47.1 69.6,46.9 70.4,46.7 C70.5,46.9 70.6,47.1 70.6,47.3 Z" id="Path"></path>
                <path d="M57.7,71.8 C56.7,71.7 56.3,71.1 56,70.1 C57,70.4 57.5,71 57.9,71.6 C57.9,71.7 57.8,71.7 57.7,71.8 Z" id="Path"></path>
                <path d="M61.9,63.7 C62.1,63.7 62.3,63.7 62.5,63.7 C62.3,63.7 62.2,63.8 62,63.8 C61.9,63.8 61.8,63.7 61.7,63.7 C61.7,63.7 61.8,63.7 61.9,63.7 Z" id="Path"></path>
                <path d="M75.6,35.3 C75.3,35.3 75,35.3 74.7,35.2 C74.4,35.2 74.1,35.1 74.2,34.7 C74.3,34.4 74.7,34.5 74.9,34.7 C75.1,34.9 75.3,35.2 75.6,35.3 C75.5,35.4 75.6,35.3 75.6,35.3 Z" id="Path"></path>
            </g>
        </g>
    </g>
</svg>