<?xml version="1.0" encoding="UTF-8"?>
<svg width="31px" height="50px" viewBox="0 0 31 50" version="1.1" xmlns="http://www.w3.org/2000/svg" xmlns:xlink="http://www.w3.org/1999/xlink">
    <title>8B29037E-F3CC-4B57-8EFD-11B3D43B569F</title>
    <g id="Page-1" stroke="none" stroke-width="1" fill="none" fill-rule="evenodd">
        <g id="Desktop-HD" transform="translate(-589.000000, -3021.000000)" fill="#F5EDEB" fill-rule="nonzero">
            <g id="noun_map-pin_1236011" transform="translate(589.000000, 3021.000000)">
                <path d="M16.2609964,50 C15.7829402,49.8962074 15.5173534,49.8443112 15.2517666,49.7405186 C15.0392972,49.6886223 14.8268278,49.4810372 14.9330625,49.2734521 C15.304884,48.2874228 14.6143583,47.6646674 14.0300674,47.0938084 C13.4988939,46.5748456 13.1270724,45.9520902 12.914603,45.3293349 C12.7021336,44.6546832 12.3834294,44.0319279 12.011608,43.4091725 C10.524322,40.9700474 9.09015343,38.4271297 7.81533692,35.884212 C6.38116833,33.081813 4.89388239,30.3832064 3.56594852,27.5289111 C1.97242787,24.1556529 0.963198128,20.6267059 0.166437803,16.9939664 C0.00708573867,16.3193148 -0.152266326,15.5927668 0.272672513,14.9181152 C0.485141933,14.6067375 0.378907223,14.2434636 0.325789868,13.9320859 C0.272672513,12.7384715 0.485141933,11.5448571 0.750728708,10.3512426 C0.856963418,9.83227984 1.06943284,9.36521333 1.54748903,8.9500431 C2.18489729,8.4310803 2.34424936,7.60073984 2.7691882,6.92608821 C3.08789233,6.40712541 3.3534791,5.83626634 3.67218323,5.26540727 C3.88465265,4.95402959 3.99088736,4.59075564 4.46894355,4.53885936 C4.68141297,4.53885936 4.89388239,4.38317052 5.0001171,4.22748168 C5.53129065,2.9300747 6.85922453,2.61869703 7.97468898,2.09973423 C9.8337964,1.21749749 11.7460212,0.387157018 13.8707154,0.387157018 C14.6143583,-0.339390892 15.464236,0.179571901 16.2609964,0.179571901 C17.5889302,0.23146818 18.9168641,0.075779342 20.1385633,0.646638414 C20.1916806,0.698534693 20.2979153,0.698534693 20.40415,0.698534693 C21.7852013,0.127675621 22.5819616,1.00991237 23.3787219,1.78835656 C24.1223649,2.46300819 24.8128905,3.1895561 25.5034161,3.91610401 C25.7690029,4.22748168 26.087707,4.53885936 26.4595285,4.6945482 C26.9375847,4.90213331 27.2562888,5.26540727 27.5218756,5.73247378 C27.6812277,6.04385146 27.8405797,6.40712541 28.2655186,6.56281425 C28.7435748,6.71850309 28.7966921,7.13367332 28.9560442,7.54884356 C29.5403351,9.46900589 30.0715086,11.3891682 30.4433301,13.3093306 C30.4964475,13.568812 30.5495648,13.8801896 30.4964475,14.1915673 C30.4433301,14.502945 30.3902128,14.8662189 30.5495648,15.0219078 C31.3994425,15.8522482 30.8151516,16.7863813 30.6557995,17.6167217 C30.3370954,19.2255064 29.7528045,20.8342911 29.4872177,22.4430757 C29.4341004,22.8063497 29.380983,23.1696236 29.1153962,23.4810013 C28.5842227,24.1556529 28.3717533,24.9340971 28.0530491,25.7125413 C27.9468144,25.9720227 27.8405797,26.2315041 27.734345,26.5428818 C27.6281103,26.958052 26.7251153,26.9061557 27.0969368,27.6327036 C27.1500541,27.7883925 26.7782326,28.3592515 26.6188806,28.7744218 C26.087707,30.1756213 25.3971814,31.5768209 24.8128905,32.9780204 C24.0692475,34.7943902 23.0600178,36.5069674 21.9976707,38.1676483 C20.244798,40.9700474 18.9699815,43.9800316 17.2171087,46.7824307 C16.7390525,47.76846 16.0485269,48.702593 16.2609964,50 Z M23.0600178,12.2195087 L23.0600178,12.2195087 C22.9537831,12.0119236 23.0600178,11.8562347 23.2193698,11.7524422 C24.0161302,11.1815831 24.8128905,10.6626203 25.5565335,10.039865 C26.4595285,9.31331705 26.4064111,9.20952449 25.6627682,8.22349519 C24.8128905,8.4310803 24.1754822,9.10573194 23.2724872,9.31331705 C23.8567781,8.9500431 24.1223649,8.27539147 24.8660079,8.11970263 C25.1315946,8.06780635 25.5034161,7.80832495 25.344064,7.49694728 C25.1315946,6.97798448 25.1315946,6.40712541 24.7066558,6.04385146 C24.6535384,5.99195518 24.4941864,6.04385146 24.3879517,6.09574774 C23.5911913,6.35522913 23.9098955,6.97798448 23.9630128,7.65263612 C23.4849566,6.66660681 22.9537831,6.97798448 22.3694922,7.39315472 C21.6789666,7.86022123 21.6258492,7.80832495 21.4664971,6.87419193 C22.050788,7.13367332 22.5288442,7.02988076 22.794431,6.40712541 C22.9537831,6.04385146 22.3163748,5.00592587 21.9976707,5.00592587 C21.6258492,4.95402959 21.147793,5.42109611 20.9884409,6.04385146 C20.9884409,6.09574774 20.9884409,6.14764402 20.9884409,6.14764402 C20.6697368,5.83626634 20.2979153,5.57678494 20.1385633,5.00592587 C19.9792112,4.38317052 19.6605071,4.33127424 19.1293335,4.74644448 C18.6512773,5.16161471 18.2263385,5.36919983 17.6420476,5.31730355 C18.2263385,4.74644448 17.6951649,4.38317052 17.3764608,3.96800029 C17.0046393,3.55283005 16.7390525,3.96800029 16.4203484,4.07179285 C15.5173534,4.38317052 16.207879,5.00592587 16.1547616,5.52488867 C15.7829402,5.16161471 15.1986493,4.85023703 14.9861798,4.38317052 C14.7737104,3.76041517 14.3487716,3.70851889 13.8707154,3.70851889 C13.7644807,3.50093377 13.9769501,3.29334866 13.9238327,3.13765982 C13.817598,2.67059331 13.4988939,2.41111191 13.0208377,2.51490447 C12.7552509,2.56680075 12.4365468,2.72248958 12.4896641,3.08576354 C12.5427815,3.50093377 12.8083683,3.86420773 13.3395418,3.81231145 C13.5520112,3.76041517 13.7113633,3.65662261 13.9769501,3.70851889 C13.6051286,4.27937796 12.9677203,4.48696308 12.3834294,4.79834076 C11.7991385,5.16161471 11.5866691,5.00592587 11.3210823,4.53885936 C11.0554956,4.07179285 10.7899088,3.60472633 10.4712047,3.13765982 C10.3118526,2.9300747 10.0993832,2.77438586 9.78067905,2.9300747 C9.56820963,3.03386726 9.35574021,3.1895561 9.46197492,3.50093377 C9.51509227,3.70851889 9.56820963,3.91610401 9.40885756,4.07179285 C8.71833195,3.50093377 8.61209724,3.50093377 7.70910221,4.1755854 C7.01857659,4.6945482 7.01857659,4.6945482 7.49663279,5.36919983 C7.86845427,5.9400589 8.45274517,6.35522913 8.71833195,7.02988076 C8.34651046,7.13367332 8.24027575,6.92608821 8.08092369,6.77039937 C7.6028675,6.1995403 7.1248113,5.62868122 6.59363775,5.05782215 C6.48740304,4.95402959 6.38116833,4.74644448 6.22181627,4.79834076 C6.00934685,4.90213331 5.95622949,5.05782215 6.00934685,5.31730355 C6.0624642,5.99195518 6.43428569,6.45902169 6.85922453,6.92608821 C7.1248113,7.23746588 7.54975014,7.49694728 7.54975014,8.01591007 C6.91234188,7.54884356 6.32805098,7.02988076 5.95622949,6.35522913 C5.79687743,6.09574774 5.63752536,5.9400589 5.37193859,6.09574774 C5.10635181,6.25143658 5.0001171,6.51091797 5.21258652,6.82229565 C5.4781733,7.13367332 5.84999478,7.34125844 5.74376007,7.86022123 C5.26570388,7.86022123 5.10635181,7.54884356 4.89388239,7.28936216 C4.52206091,6.92608821 4.30959149,7.08177704 4.09712207,7.445051 C3.88465265,7.80832495 3.99088736,8.17159891 4.25647413,8.48297658 C4.46894355,8.74245798 4.84076504,8.9500431 4.73453033,9.46900589 C4.15023942,9.41710961 4.09712207,8.6905617 3.40659645,8.58676914 C2.92854026,10.5588278 2.13177994,12.4270938 1.81307581,14.3991524 C1.7068411,15.2294929 1.28190226,16.0079371 1.49437168,16.8382775 C1.75995845,18.0837882 1.97242787,19.3811952 2.55671878,20.5748097 C3.14100968,21.8722166 3.56594852,23.2215199 4.09712207,24.5189269 C5.15946917,27.4251185 6.32805098,30.3313102 7.76221956,33.1337092 C9.19638814,35.9361083 10.5774394,38.7904037 12.1178427,41.5928028 C12.5958989,42.4231432 13.2333071,43.1496911 13.7113633,43.9800316 C13.9238327,44.2914093 14.1363022,44.3433056 14.4550063,44.1876167 C14.6674757,44.0838242 14.9330625,43.9800316 15.1455319,43.876239 C16.6328178,43.2534837 16.6328178,43.2534837 16.3141137,41.7484916 C16.3141137,41.644699 16.2609964,41.5928028 16.2609964,41.4890102 C16.5797005,40.2434995 16.1547616,38.9979888 16.1547616,37.7524781 C16.1547616,37.4411004 16.1016443,37.1297227 16.3672311,36.6626562 C16.5797005,37.9600632 16.7390525,39.1017814 16.8984046,40.2434995 C17.0046393,40.8143586 17.2171087,40.9700474 17.7482823,40.710566 C18.4388079,40.3472921 18.5450426,39.6726404 18.0669864,38.9460925 C17.9607517,38.8423 17.5358129,38.8941962 17.854517,38.5828186 C18.2794558,38.2195446 18.0669864,37.7524781 18.0669864,37.2854116 C18.0138691,36.1436934 17.7482823,35.0538716 17.9607517,33.7564646 C18.7043947,35.1057678 18.3856905,36.5588637 18.9168641,37.8043744 C20.1385633,37.3892041 20.1916806,37.3892041 20.0854459,36.247486 C19.9260938,34.950079 19.9792112,33.7045683 19.7667418,32.4071613 C19.6073897,31.3173395 19.5542724,30.2275176 19.4480376,29.1376957 C20.0323286,30.486999 20.2979153,31.9400948 20.40415,33.3412944 C20.4572674,34.2235311 20.5103847,34.2235311 21.5196145,34.0678423 C20.4572674,35.1057678 20.40415,35.4690418 20.9884409,36.5588637 C21.0946757,36.4550711 21.2009104,36.4031748 21.2540277,36.2993823 C21.5196145,35.7804195 21.7320839,35.2614567 21.9976707,34.7424939 C22.3163748,34.1197385 21.7320839,34.2235311 21.4664971,34.0678423 C21.4664971,33.7564646 21.7852013,33.7045683 21.891436,33.4969832 C22.2101401,33.1337092 22.2101401,32.0957837 21.9976707,31.7325097 C21.6789666,31.2135469 21.3602624,32.0438874 21.0415583,31.6806134 C21.0946757,31.5768209 21.147793,31.421132 21.2540277,31.3692357 C22.2632575,31.0578581 22.1039054,30.3313102 21.9976707,29.552866 C21.9445533,29.0857995 21.4664971,28.6187329 21.6258492,28.1516664 C21.9445533,27.2694297 21.6258492,26.4390892 21.4664971,25.5568525 C21.4133798,25.2454748 21.2009104,24.9340971 21.5196145,24.5708232 C22.050788,25.1935785 22.050788,25.9720227 22.1570227,26.6466743 C22.2101401,26.9061557 22.2101401,27.2694297 22.5819616,27.321326 C22.9006657,27.3732222 23.1662525,27.1656371 23.3787219,26.958052 C23.697426,26.6985706 23.6443087,26.3871929 23.5911913,26.023919 C23.3787219,24.7784083 23.1662525,23.4810013 22.9537831,22.2354906 C22.8475484,21.7165278 22.6881963,21.6127352 22.1570227,21.8203204 C21.6258492,22.0279055 21.2009104,22.5468683 20.4572674,22.4430757 C21.2009104,21.560839 22.7413137,21.6127352 22.794431,19.7963655 C23.1662525,20.7304985 23.6443087,20.4191208 24.0692475,20.4710171 C23.3787219,20.9899799 23.2724872,21.6646315 23.4849566,22.3911794 C23.8036608,23.3253125 23.8036608,24.3113418 23.9630128,25.2454748 C24.0161302,25.5568525 24.0161302,25.8682301 24.3348343,26.0758153 C25.8221202,25.4011636 26.6188806,24.5708232 26.9375847,23.3772087 C26.990702,23.0658311 27.0438194,22.8063497 26.7251153,22.6506608 C26.4064111,22.494972 26.1408244,22.7025571 25.928355,22.9101422 C25.5565335,23.2215199 25.8221202,23.6885864 25.6096508,24.0518604 C25.2378293,23.9480678 25.2909467,23.4810013 24.9191252,23.4810013 C24.6535384,23.4810013 24.6535384,23.3253125 24.7597731,23.1696236 C25.344064,22.494972 24.8660079,21.7684241 24.8128905,21.0418762 C24.7597731,20.4191208 24.3348343,20.5748097 24.0161302,20.5748097 C23.9630128,20.0558469 24.7066558,19.9520543 24.6004211,19.4330915 C24.4941864,19.0179213 24.4941864,18.5508548 24.441069,18.031892 C24.7597731,18.2913734 24.7597731,18.5508548 24.8128905,18.8103362 C24.9722426,19.5368841 25.184712,19.5368841 25.8221202,19.1217138 C26.6188806,18.6546473 26.4595285,17.9799957 26.3532938,17.2534478 C26.2470591,16.6306924 25.9814723,16.371211 25.344064,16.6306924 L25.344064,16.6825887 C25.6627682,16.2674185 25.8752376,15.7484557 26.4595285,15.5408706 C27.8405797,15.0219078 28.1061665,14.3472561 27.4687582,13.0498492 C27.2562888,12.6346789 27.0438194,12.6865752 26.7782326,12.842264 C26.3001764,13.0498492 25.9814723,13.568812 25.344064,13.5169157 C25.3971814,13.1536417 25.7690029,12.9979529 26.0345897,12.842264 C27.4687582,11.8562347 27.2031715,12.2195087 26.8844673,10.5069315 C26.83135,10.3512426 26.83135,10.1955538 26.5126459,10.0917612 C25.4502988,10.8183092 24.2285996,11.4929608 23.0600178,12.2195087 Z M15.7829402,47.1457046 C16.7390525,46.1596753 16.8452873,45.0698535 16.4734658,43.7724465 C15.8891749,44.0319279 15.4111187,44.2914093 14.8799451,44.4470981 C14.4018889,44.602787 14.2956542,44.8622684 14.561241,45.2774386 C14.9330625,45.9001939 15.3580013,46.471053 15.7829402,47.1457046 Z M28.1592839,10.1436575 C28.1592839,9.20952449 27.734345,8.48297658 27.0969368,7.86022123 C26.9375847,7.70453239 26.7251153,7.65263612 26.5126459,7.80832495 C26.3001764,7.96401379 26.4064111,8.17159891 26.4064111,8.37918403 C26.4064111,9.00193938 27.4687582,8.89814682 27.2562888,9.46900589 C27.0438194,10.039865 27.1500541,10.5069315 27.4156409,10.973998 C27.4687582,11.1296868 27.5218756,11.2853757 27.6281103,11.3891682 C27.734345,11.5448571 27.8936971,11.5967533 28.1061665,11.4929608 C28.3186359,11.4410645 28.3717533,11.2853757 28.3186359,11.1296868 C28.2655186,10.7664129 28.2124012,10.4550352 28.1592839,10.1436575 Z M25.6627682,22.4430757 C27.1500541,21.9241129 27.3094062,21.197565 26.5126459,19.5368841 C25.0784773,20.263432 24.8660079,19.8482617 25.6627682,22.4430757 Z M22.7413137,30.3313102 C24.1754822,29.8123474 24.1754822,29.7604511 23.8567781,28.3073553 C23.697426,27.6327036 23.538074,27.5289111 22.9537831,27.892185 C22.5819616,28.1516664 22.2632575,28.4111478 22.4757269,28.9301106 C22.5819616,29.3452809 22.4226095,29.8642436 22.7413137,30.3313102 Z M28.0530491,15.5927668 C26.6188806,16.0598334 26.5657632,16.1636259 26.7251153,17.2534478 C26.8844673,18.2394771 27.2562888,18.3951659 28.0530491,17.7724106 C28.3186359,17.5648255 28.5311053,17.2534478 28.4248706,16.8901738 C28.3186359,16.4231073 28.2124012,16.0598334 28.0530491,15.5927668 Z M20.1916806,37.8562707 C19.501155,37.8562707 18.8637467,38.3752334 18.8637467,38.9979888 C18.8637467,39.3612627 18.757512,39.8283293 19.3418029,39.776433 C19.9792112,39.776433 20.5635021,39.1536776 20.6166195,38.4271297 C20.6166195,38.0638558 20.4572674,37.8562707 20.1916806,37.8562707 Z M26.0345897,26.023919 C24.0161302,27.2175334 23.9630128,27.3732222 24.7066558,28.9820069 C25.2909467,28.0478739 25.7690029,27.2175334 26.0345897,26.023919 Z M18.1201038,40.9181511 C17.7482823,40.9181511 17.4826955,41.07384 17.2171087,41.2814251 C16.7921699,41.644699 16.951522,42.0598693 17.110874,42.5269358 C17.2171087,42.8383135 17.4826955,42.8383135 17.7482823,42.7864172 C18.2794558,42.6826246 18.3856905,42.3193507 18.3856905,41.8522842 C18.3325732,41.5928028 18.3856905,41.2295288 18.1201038,40.9181511 Z M19.4480376,3.86420773 C19.501155,3.50093377 19.0762162,2.9300747 18.757512,2.9300747 C18.3325732,2.98197098 17.9076344,3.03386726 17.7482823,3.50093377 C17.6951649,3.76041517 18.1732211,4.4350668 18.4388079,4.38317052 C18.8637467,4.33127424 19.2886856,4.27937796 19.4480376,3.86420773 Z M24.3879517,5.10971843 C24.3879517,4.6945482 23.8567781,4.33127424 23.2724872,4.33127424 C23.0069004,4.33127424 22.794431,4.4350668 22.794431,4.74644448 C22.794431,5.10971843 23.3256046,5.88816262 23.5911913,5.88816262 C23.9630128,5.9400589 24.441069,5.47299239 24.3879517,5.10971843 Z M27.4687582,20.5229134 C28.1061665,20.0558469 27.9999318,19.2255064 28.5842227,18.8103362 C28.6373401,18.7584399 28.5842227,18.5508548 28.5842227,18.4989585 C28.5311053,18.3951659 28.3717533,18.3951659 28.2655186,18.4470622 C27.2031715,18.7065436 26.990702,19.2255064 27.4687582,20.5229134 Z M11.1617303,2.35921563 C10.9492609,2.41111191 10.7367914,2.51490447 10.8430261,2.77438586 C11.0554956,3.24145238 11.3210823,3.70851889 11.5866691,4.22748168 C11.6929038,4.4350668 11.9053732,4.53885936 12.1178427,4.4350668 C12.3303121,4.33127424 12.3834294,4.12368913 12.3303121,3.91610401 C12.2240774,3.34524494 11.6397865,2.98197098 11.3741997,2.46300819 C11.3741997,2.35921563 11.267965,2.35921563 11.1617303,2.35921563 Z M14.7737104,2.72248958 C15.1455319,2.77438586 15.8360575,2.30731935 15.8891749,1.99594168 C15.8891749,1.73646028 15.7829402,1.4250826 15.464236,1.47697888 C14.9861798,1.52887516 14.5081236,1.684564 14.2956542,2.09973423 C14.1894195,2.30731935 14.4018889,2.61869703 14.7737104,2.72248958 Z M23.0069004,32.718539 C23.1662525,31.9919911 23.538074,31.3173395 23.8036608,30.486999 C22.5288442,31.1097543 22.4757269,31.3173395 23.0069004,32.718539 Z M28.4248706,13.9320859 C28.8498095,13.3612268 28.9029268,12.5827826 28.5311053,12.2195087 C28.4248706,12.1157161 28.3186359,12.0638199 28.2124012,12.1676124 C28.1061665,12.2195087 27.9999318,12.3751975 27.9999318,12.4270938 C28.0530491,12.9460566 28.1061665,13.4650194 28.4248706,13.9320859 Z M21.6258492,4.33127424 C21.5196145,4.07179285 21.5196145,3.65662261 21.0946757,3.65662261 C20.7759715,3.65662261 20.40415,3.86420773 20.4572674,4.27937796 C20.4572674,4.59075564 20.6166195,4.95402959 21.0415583,4.95402959 C21.3602624,4.85023703 21.5727318,4.6945482 21.6258492,4.33127424 Z M16.2609964,2.72248958 C15.8360575,2.77438586 15.4111187,2.9300747 15.2517666,3.39714122 C15.1455319,3.60472633 15.3580013,3.91610401 15.6235881,3.86420773 C16.0485269,3.70851889 16.4734658,3.55283005 16.6859352,3.08576354 C16.7390525,2.87817842 16.5265831,2.77438586 16.2609964,2.72248958 Z M18.4919253,2.20352679 C18.1201038,1.9440454 17.8013996,1.9440454 17.4826955,1.99594168 C17.2171087,1.99594168 17.0046393,2.15163051 17.0577567,2.46300819 C17.110874,2.72248958 17.3233434,2.87817842 17.5889302,2.82628214 C17.9076344,2.72248958 18.1732211,2.56680075 18.4919253,2.20352679 Z M20.2979153,2.56680075 C20.0323286,2.61869703 19.7136244,2.61869703 19.7667418,3.03386726 C19.7667418,3.1895561 19.9260938,3.34524494 20.1385633,3.34524494 C20.4572674,3.34524494 20.7228542,3.1895561 20.7228542,2.82628214 C20.6697368,2.61869703 20.5103847,2.56680075 20.2979153,2.56680075 Z M17.5358129,43.30538 C17.1639914,43.3572763 17.1639914,43.6167576 17.1639914,43.8243428 C17.1639914,43.9800316 17.110874,44.1876167 17.3764608,44.1876167 C17.6951649,44.1357204 17.6951649,43.876239 17.8013996,43.6167576 C17.854517,43.5129651 17.8013996,43.30538 17.5358129,43.30538 Z M1.06943284,15.3332854 C1.44125432,14.4510487 1.44125432,14.4510487 1.12255019,13.8282933 C1.12255019,14.3991524 1.06943284,14.8662189 1.06943284,15.3332854 Z M12.2771947,2.35921563 C12.4365468,2.35921563 12.5958989,2.25542307 12.5958989,2.09973423 C12.5958989,2.04783795 12.4896641,1.9440454 12.4365468,1.9440454 C12.2771947,1.9440454 12.1178427,2.04783795 12.1178427,2.20352679 C12.1178427,2.25542307 12.2240774,2.35921563 12.2771947,2.35921563 Z" id="Shape"></path>
                <path d="M22.965563,11.8102785 C22.6388832,11.9128473 22.5299899,12.1179847 22.6933298,12.3744066 C23.2377962,13.1949566 22.965563,13.9642222 22.5844365,14.7334878 C21.7132903,16.5284409 20.8965907,18.323394 19.5898714,19.9132096 C19.2631915,20.3234846 19.045405,20.8363283 18.4464919,20.1696315 C18.1742587,19.9132096 18.0109188,20.2209159 17.9020255,20.4260534 C17.6297923,20.8363283 17.3575591,21.4004565 16.8130928,20.5799065 C16.6497528,20.374769 16.323073,20.4260534 16.1052864,20.4773377 C14.6896738,20.5799065 13.3285078,20.1696315 12.0217885,19.8106409 C10.9328557,19.554219 10.4428359,18.6311003 10.0617095,17.7592659 C9.68058299,16.9387159 9.29945652,16.0668816 9.1361166,15.1950472 C9.02722332,14.5796347 8.80943676,13.9642222 9.35390316,13.4513785 C9.46279643,13.3488097 9.46279643,13.1436722 9.46279643,12.9898191 C9.51724307,11.5538566 10.1706027,10.4256004 11.1506423,9.39991292 C12.1306818,8.32294107 13.4918478,7.91266607 14.8530137,8.01523482 C16.7586461,8.16908794 18.5553852,8.73321606 20.2976777,9.50248167 C20.8965907,9.75890354 21.3321638,10.0666098 21.5499504,10.6820223 C21.7132903,11.2974348 22.2033101,11.7589941 22.965563,11.8102785 C23.0200096,11.8615629 22.965563,11.8102785 22.965563,11.8102785 Z M10.2250494,13.5026628 C10.2250494,13.8103691 10.2250494,14.0155066 10.2250494,14.1693597 C10.279496,15.6053222 11.2050889,16.682294 12.1306818,17.7079815 C12.7295948,18.4259628 13.600741,18.2721096 14.4174406,18.4259628 C15.1252469,18.5798159 15.8330532,18.5798159 16.5408596,18.8875221 C17.3031125,19.2465127 18.0653655,19.0926596 18.6642785,18.4259628 C19.3176382,17.7079815 19.9165512,16.9900003 20.4610176,16.1694503 C20.7332508,15.7591753 21.005484,15.2463316 20.8421441,14.9386253 C20.5154642,14.2719285 20.6243575,13.656516 20.5699109,13.0411035 C20.5699109,12.6821129 20.406571,12.3744066 20.1887844,12.1179847 C19.4809781,11.3487191 18.8820651,10.4768848 18.0653655,9.75890354 C17.4120058,9.19477542 16.5408596,8.52807856 15.6152667,8.93835355 C14.2541007,9.55376604 12.7295948,9.91275666 11.5317687,10.9897285 C10.6606225,11.8102785 10.279496,12.6308285 10.2250494,13.5026628 Z M15.2341402,19.2465127 C14.8530137,19.0926596 14.5263339,18.8362378 14.1996541,19.3490815 C14.5807805,19.554219 14.961907,19.5029346 15.2341402,19.2465127 Z" id="Shape"></path>
                <path d="M25,16.034235 C24.8333333,16.8244064 24.3888889,16.8244064 24,17 C24.2222222,16.3854223 24.5,15.8586414 25,16.034235 C25,16.034235 25,16.034235 25,16.034235 Z" id="Path"></path>
                <path d="M17,6 C17.25,5.4 17.5625,5.1 18,5 C17.9375,6 17.4375,5.9 17,6 Z" id="Path"></path>
                <path d="M16.0041494,5 C16.3360996,5.17021277 16.6016598,5.5106383 17,5.42553191 C16.93361,5.93617021 16.6016598,6.10638298 16.3360996,5.93617021 C15.9377593,5.85106383 16.0041494,5.42553191 16.0041494,5 Z" id="Path"></path>
            </g>
        </g>
    </g>
</svg>