<?xml version="1.0" encoding="UTF-8"?>
<svg width="48px" height="50px" viewBox="0 0 48 50" version="1.1" xmlns="http://www.w3.org/2000/svg" xmlns:xlink="http://www.w3.org/1999/xlink">
    <title>1B41AB8E-5A70-4DB8-B272-32FEE4C57D03</title>
    <g id="Page-1" stroke="none" stroke-width="1" fill="none" fill-rule="evenodd">
        <g id="Desktop-HD" transform="translate(-540.000000, -3117.000000)" fill="#F5EDEB" fill-rule="nonzero">
            <g id="noun_Speech-Bubble_1301369" transform="translate(540.000000, 3117.000000)">
                <path d="M0,16.2425839 C0.766476953,15.6269472 0.86867388,14.9087043 0.71537849,14.1391583 C0.664280026,13.882643 0.664280026,13.5235215 0.766476953,13.3183093 C1.32856005,12.3435511 1.22636313,11.2661867 1.37965852,10.2401254 C1.53295391,9.1627611 1.32856005,8.08539675 1.27746159,6.95672935 C1.22636313,5.62284969 1.27746159,4.28897002 1.53295391,3.00639342 C1.58405237,2.80118117 1.6862493,2.64727198 1.94174162,2.49336278 C2.2483324,3.16030262 2.8104155,3.16030262 3.52579399,3.05769649 C5.26314175,2.80118117 7.05158797,2.85248423 8.73783727,2.59596891 C10.5262835,2.33945359 12.2636313,2.39075666 14.0520775,2.28815053 C19.4685146,1.98033215 24.9360502,1.92902908 30.3524874,1.56990763 C31.7321459,1.46730151 33.1118044,1.46730151 34.5425614,1.46730151 C38.2727492,1.46730151 42.002937,1.36469538 45.7331249,1.00557393 C46.3463064,0.954270866 46.4485034,1.26208925 46.5507003,1.72381683 C46.7550942,2.28815053 46.4996018,2.85248423 46.5507003,3.41681794 C46.6528972,4.34027309 47.0105865,5.26372824 46.4996018,6.18718339 C46.3974049,6.34109258 46.3974049,6.64891096 46.4996018,6.90542628 C47.1638819,9.1627611 47.0105865,11.522702 46.9083895,13.7800369 C46.7550942,16.4477962 47.0616849,19.1668586 46.5507003,21.885921 C46.295208,23.1684976 46.4996018,24.5536803 46.4996018,25.8875599 C46.4996018,26.0927722 46.4996018,26.4005906 46.6528972,26.5544998 C47.0105865,26.9136212 46.9083895,27.1701365 46.6017988,27.529258 C46.4996018,27.6318641 46.4485034,27.8883794 46.4485034,28.0422886 C46.4996018,29.8891989 45.7842233,31.6335031 45.630928,33.4804134 C45.630928,33.6856257 45.5798295,33.8395349 45.3243372,33.993444 C44.4045648,33.3778073 43.3825956,33.6856257 42.3606263,33.5830195 C40.9809678,33.4291103 39.6013093,33.4804134 38.2216507,33.5317165 C37.3018784,33.5830195 37.1996815,33.7369287 37.4551738,34.5577778 C38.4771431,37.7385677 39.6524077,40.8167516 41.338657,43.6897231 C42.0540355,44.9209967 42.769414,46.1522702 43.3314971,47.4348468 C43.6380879,48.0504836 43.8935802,48.6661203 43.0249063,49.1278479 C42.6161186,49.3330602 43.2293002,49.7947877 42.769414,50 C39.2947185,46.4600886 35.6156291,43.1253894 31.9365397,39.7393872 C30.6590781,38.5594167 29.4838135,37.2255371 27.8997611,36.4046881 C27.6953672,36.3020819 27.6953672,36.1481727 27.5931703,35.9429605 C27.0821857,34.6090808 26.2646103,33.7882318 24.6805579,33.7882318 C23.3008994,33.7882318 21.9212409,33.7882318 20.5926808,33.993444 C19.7240069,34.1473532 18.9064315,34.0447471 18.0888561,33.8908379 C16.8113945,33.6856257 15.431736,33.6856257 14.1542744,33.6856257 C12.0081389,33.6856257 9.91310193,33.7882318 7.76696646,33.5830195 C6.94939104,33.4804134 6.08071716,33.5830195 5.21204328,33.7369287 C4.19007401,33.8908379 3.2192032,33.4291103 2.14613547,33.6856257 C1.43075698,33.8395349 0.970870808,33.121292 0.970870808,32.3004429 C0.970870808,31.8387154 0.970870808,31.3256847 0.970870808,30.8639571 C0.970870808,29.9918051 0.970870808,29.9918051 0.0510984636,29.8378959 C0.0510984636,29.7865928 0.0510984636,29.7352897 0.0510984636,29.6839867 C1.17526466,28.7092285 1.17526466,27.3753488 1.1241662,26.0414691 C1.07306773,23.7841343 1.32856005,21.5781026 1.1241662,19.3207678 C1.07306773,18.6538279 0.919772344,17.935585 0.970870808,17.1660391 C0.970870808,16.5504023 0.562083099,16.3964931 0,16.2425839 Z M37.7617646,40.6115393 C37.8639615,40.2011148 37.9661584,39.7906903 37.6595676,39.4315688 C37.5573707,39.2776596 37.4040753,39.3289627 37.3018784,39.3802658 C37.1996815,39.4828719 37.0974845,39.585478 37.1996815,39.7393872 C37.4040753,40.0472056 37.8639615,40.1498117 37.7617646,40.6115393 C37.91506,41.0219638 37.3529769,41.3297822 37.6595676,41.7915098 C38.0172569,41.7402067 38.4771431,41.6889036 38.4260446,41.2271761 C38.4260446,40.9193577 38.3238477,40.4576301 37.7617646,40.6115393 Z M3.83238477,9.00885191 C3.73018784,9.36797335 3.47469552,9.67579174 3.27030167,9.98361012 C3.11700628,10.2401254 3.06590781,10.5479438 3.32140013,10.7531561 C3.57689245,10.9583683 3.83238477,10.8557622 4.08787708,10.701853 C4.3433694,10.5479438 4.54776326,10.3427316 4.75215711,10.2401254 C5.31424021,9.93230706 5.67192945,9.36797335 6.38730794,9.26536723 C5.77412638,10.1888224 4.85435404,10.7531561 3.93458169,11.4200959 C3.27030167,11.8818235 2.96371089,12.4461572 3.32140013,13.3183093 C4.29227094,13.0104909 5.05874789,12.3435511 5.97852024,11.8818235 C5.31424021,12.5487633 4.64996018,13.1644001 3.93458169,13.7287338 C3.52579399,14.0878552 3.32140013,14.3956736 3.32140013,15.0113104 C3.32140013,15.8321594 3.83238477,16.5504023 3.32140013,17.5764636 C4.54776326,16.9608268 5.21204328,16.0373717 6.23401255,15.6782502 C5.4675356,16.4477962 4.70105865,17.1660391 3.88348323,17.884282 C3.42359706,18.3460095 3.06590781,18.8590402 3.42359706,19.5772831 C4.13897555,19.3720708 4.39446787,18.705131 5.00764943,18.4486157 C5.05874789,18.9103432 4.3433694,18.9616463 4.54776326,19.52598 C5.21204328,19.3720708 5.51863406,18.6025249 6.48950487,18.3973126 C5.51863406,19.3207678 4.80325557,20.0390107 3.98568016,20.7059505 C3.16810474,21.4241934 2.8104155,22.2450424 3.01480935,23.4250129 C4.13897555,22.8606792 4.44556633,21.1676781 6.23401255,21.3215873 C5.21204328,22.3476485 4.3433694,23.2711037 3.42359706,24.1432558 C2.75931703,24.8101956 2.40162779,25.5797416 2.8104155,26.5544998 C3.11700628,26.3492875 3.37249859,26.2466814 3.57689245,26.0927722 C3.73018784,26.4005906 3.88348323,26.2979845 4.08787708,26.1440753 C4.24117248,25.9901661 4.39446787,25.7849538 4.08787708,25.6310446 C4.13897555,25.3745293 4.3433694,25.0154079 4.44556633,25.0667109 C5.36533867,25.3745293 5.67192945,24.6562864 6.18291409,24.1945588 C7.05158797,23.4250129 7.97136031,22.6041639 8.8400342,21.8346179 C11.7526466,19.1668586 14.8185544,16.7556146 17.6800684,14.0365522 C19.3663177,12.4461572 21.4102562,11.2148837 23.3519978,9.82970093 C23.4030963,9.82970093 23.4541948,9.82970093 23.5052932,9.82970093 L23.4541948,9.77839787 C23.5052932,10.1375193 23.2498009,10.2401254 23.0454071,10.4453377 C22.2789301,11.1122775 21.4613547,11.7792174 20.6437793,12.4461572 C17.8333638,14.8574012 14.767456,16.9095238 12.3147297,19.6285861 C11.3949574,20.6546474 10.1685942,21.1676781 9.14662498,21.9885271 C7.1537849,23.6302251 5.36533867,25.5797416 3.37249859,27.2214396 C2.40162779,28.0422886 2.50382471,28.9144407 2.75931703,30.1457143 C3.27030167,29.5300775 3.67908938,29.119653 3.93458169,28.6579254 C4.29227094,28.0422886 4.80325557,28.298804 5.26314175,28.1448948 C5.62083099,27.9909856 6.08071716,27.6318641 6.08071716,27.0675304 L6.08071716,27.0675304 C6.23401255,27.4266519 6.08071716,27.7344702 5.82522485,27.9909856 C4.9054525,28.9144407 4.19007401,29.9918051 3.01480935,30.5561388 C2.50382471,30.8126541 2.55492318,31.2230786 2.55492318,31.6335031 C2.60602164,32.1978368 3.06590781,32.0952307 3.42359706,32.0952307 C3.73018784,32.0952307 4.08787708,32.0439276 4.39446787,32.0439276 C6.74499719,32.0439276 9.14662498,31.7874123 11.4971543,32.351746 C12.9790097,32.7108674 14.4097667,32.7108674 15.8405237,32.6082613 C17.3223791,32.5056552 18.7531361,32.5569583 20.2349916,32.6082613 C21.2058624,32.6595644 22.2789301,32.8647766 22.8921117,31.7361092 C22.9432101,31.6848062 23.0454071,31.5822 23.0965055,31.5822 C24.1695733,31.9413215 24.578361,30.9665633 25.1915425,30.5048357 C26.4179057,29.6326836 27.5420719,28.7092285 28.768435,27.7857733 C27.4398749,29.5300775 25.6003302,30.6587449 23.811884,32.351746 C26.7244964,32.5056552 28.5129427,34.3525655 30.5057827,35.9429605 C30.9656689,36.3020819 31.2722597,36.353385 31.7321459,35.8916574 C32.1409336,35.532536 32.3964259,34.9168992 33.0607059,34.9168992 C33.0607059,34.9168992 33.0096075,34.8655961 33.0096075,34.8655961 C33.0607059,34.9168992 33.1629028,35.0195053 33.2140013,35.0195053 C33.8782813,34.9682023 34.5425614,34.6090808 35.1557429,35.2760206 C35.4112352,35.532536 35.717826,35.1734145 35.6667276,34.76299 C35.6156291,34.0960502 35.1046445,33.7369287 34.6447583,33.172595 C36.4332045,31.8387154 37.91506,30.1970173 39.8057031,29.170956 L39.8057031,29.170956 C39.8568016,29.3761683 39.7035062,29.8378959 40.2144908,29.5300775 C41.3897555,28.8118346 42.5139217,27.9909856 43.7402848,27.4779549 C44.5067618,27.1188335 44.8133525,26.6058028 44.864451,25.8875599 C45.0177464,23.9380435 45.1199433,21.9885271 45.3243372,20.0903137 C45.6820264,16.8582207 45.4265341,13.6261277 45.3754356,10.3940346 C45.3754356,8.08539675 45.3754356,5.72545581 45.3754356,3.41681794 C45.3754356,2.80118117 45.1710418,2.54466585 44.5578602,2.64727198 C43.2293002,2.85248423 41.9518386,2.85248423 40.6232785,2.59596891 C40.4188847,2.54466585 40.1633924,2.64727198 39.9079,2.59596891 C39.0392262,2.54466585 38.2216507,2.64727198 37.7617646,3.57072713 C37.7617646,4.0324547 37.2507799,4.23766696 36.8419922,4.49418228 C34.9513491,5.72545581 33.2650998,7.11063854 31.6810474,8.75233659 C31.0678658,9.36797335 30.4035858,9.93230706 29.7393058,10.5479438 C30.199192,8.54712433 31.9876382,7.93148756 33.2650998,6.75151709 C34.5425614,5.57154662 35.9222199,4.44287921 37.3529769,3.10899955 C35.820023,2.80118117 34.5936598,2.9037873 33.3161982,2.9037873 C32.9074105,2.9037873 32.4475244,2.9037873 32.0387367,2.9037873 C31.527752,2.9037873 31.1700628,3.21160568 30.7612751,3.468121 C30.7101766,3.468121 30.4546843,2.9037873 30.0458966,3.31421181 C29.6882073,3.67333326 29.3305181,3.92984858 28.9217304,4.23766696 C27.9508596,5.00721292 27.0310872,5.77675888 26.0602164,6.5976079 C26.009118,6.64891096 25.906921,6.64891096 25.8047241,6.64891096 C25.8558226,6.49500177 25.906921,6.28978952 26.009118,6.0332742 C25.4470349,6.08457726 25.1404441,6.70021403 24.578361,6.64891096 C24.2717702,5.62284969 25.2937395,5.57154662 25.7536256,5.16112211 C26.3157087,4.64809147 27.0821857,4.39157615 27.6442688,3.87854551 C28.1552534,3.41681794 29.1261242,4.18636389 29.3816165,3.16030262 C29.0750258,2.85248423 28.7173365,3.00639342 28.4107457,3.05769649 C26.9799888,3.26290874 25.4981333,3.36551487 24.0162779,3.36551487 C23.2498009,3.36551487 22.6366194,3.468121 22.1767332,4.28897002 C21.8190439,4.95590985 20.9503701,5.3150313 20.28609,5.77675888 C20.1838931,5.82806194 20.0816962,5.16112211 19.6729085,5.41763743 L19.7240069,5.46894049 C19.9284008,4.80200066 20.4904839,4.59678841 21.052567,4.34027309 C21.4102562,4.18636389 21.7679455,4.08375777 21.8701424,3.468121 C19.62181,3.51942406 17.4245761,3.36551487 15.2784406,3.67333326 C14.8185544,3.72463632 14.5119637,3.98115164 14.2053729,4.28897002 C13.5921913,4.85330373 12.9790097,5.77675888 12.2125328,5.82806194 C11.3438589,5.87936501 10.8839727,6.39239564 10.2707912,6.75151709 C9.55541269,7.1619416 8.99332959,7.72627531 8.22685263,7.98279063 C8.38014802,7.3158508 8.99332959,7.1619416 9.45321576,6.85412322 C10.8839727,5.87936501 12.3147297,4.95590985 13.8476836,3.98115164 C13.2345021,3.77593938 12.7746159,3.98115164 12.5191236,4.23766696 C11.2927604,5.46894049 9.50431422,5.52024356 8.07355724,6.34109258 C7.40927722,6.75151709 6.84719412,7.41845692 6.0296187,7.52106305 C6.0296187,7.05933548 6.48950487,7.00803241 6.74499719,6.75151709 C7.56257261,5.87936501 8.6867388,5.3150313 9.45321576,4.13506083 C7.1537849,4.34027309 5.05874789,4.54548534 2.96371089,4.69939453 C2.8104155,5.87936501 3.42359706,7.00803241 3.06590781,8.13669982 C3.01480935,8.39321514 3.06590781,8.70103352 3.16810474,8.95754884 C3.32140013,9.41927642 3.57689245,9.21406416 3.83238477,9.00885191 Z M37.812863,32.0952307 C39.1414231,31.9926246 40.4188847,32.3004429 41.7474447,32.4030491 C42.3095278,32.4543521 42.8716109,32.4030491 43.433694,32.4030491 C43.7913833,32.4030491 43.9446787,32.3004429 43.9957771,31.8387154 C44.097974,30.8126541 44.097974,29.7865928 44.5578602,28.8118346 C44.6089587,28.7605315 44.4556633,28.5553193 44.3534664,28.298804 C43.3314971,28.9657438 42.3606263,29.5813805 41.3897555,30.2483204 C40.8787708,30.6074418 40.4188847,31.0178663 39.7546046,31.0178663 C38.8348323,30.9152602 38.3749461,31.5822 37.812863,32.0952307 Z M34.9002506,39.2263566 C35.9222199,40.4576301 36.0244168,40.4576301 36.7908938,39.2263566 C36.8930907,39.0211443 37.0974845,38.8672351 36.8419922,38.5081137 C36.1777122,38.4568106 35.6156291,38.8672351 34.9002506,39.2263566 Z M36.6375984,38.0463861 C36.8419922,38.0463861 37.0463861,37.94378 36.9952876,37.7385677 C36.7908938,37.2255371 36.5354014,36.7125064 36.2799091,36.2507789 C36.2288107,36.1994758 36.0244168,36.1994758 35.9222199,36.2507789 C35.820023,36.3020819 35.6667276,36.5072942 35.717826,36.5585972 C35.9733183,36.9690218 36.3310076,37.3281432 36.2288107,37.8924769 C36.1266137,37.995083 36.4332045,38.0463861 36.6375984,38.0463861 Z M39.8568016,44.5105722 C39.7546046,43.587117 39.3458169,42.9714802 39.0392262,42.3558435 C38.8859308,42.0480251 38.6304384,41.996722 38.3749461,42.2019343 C38.1194538,42.4071465 38.1194538,42.6636619 38.3749461,42.817571 C38.9370292,43.1766925 39.0903246,43.9462385 39.8568016,44.5105722 Z M35.053546,36.4046881 C33.8271829,36.7125064 33.4694936,37.0203248 33.1118044,37.995083 C33.9293798,37.5846585 34.5936598,37.1229309 35.053546,36.4046881 Z M35.5134322,37.4820524 C34.9002506,37.5846585 34.5425614,37.8924769 34.1337737,38.1489922 C33.9804783,38.2515984 33.8782813,38.4568106 33.9804783,38.6107198 C34.0826752,38.764629 34.287069,38.8672351 34.4403644,38.7133259 C34.9002506,38.4055075 35.4623337,38.2515984 35.5134322,37.4820524 Z M32.1409336,37.0716279 C32.8563121,36.7638095 33.5205921,36.4046881 33.8782813,35.6864452 C33.1629028,35.9429605 32.4986228,36.353385 32.1409336,37.0716279 Z M36.8930907,41.3810853 C37.0974845,41.3297822 37.2507799,41.175873 37.3018784,40.9193577 C37.3018784,40.7141454 37.3018784,40.5089332 37.0463861,40.5602362 C36.8419922,40.6115393 36.5864999,40.6628424 36.5864999,40.9706607 C36.5354014,41.1245699 36.6886968,41.2784791 36.8930907,41.3810853 Z M9.86200347,4.49418228 C10.2707912,4.64809147 10.475185,4.49418228 10.577382,4.13506083 C10.2196927,4.08375777 10.0663973,4.28897002 9.86200347,4.49418228 Z" id="Shape"></path>
                <path d="M18.0177795,29 C17.9152568,28.3378442 18.2740861,27.8794287 18.6329154,27.7775586 C19.7606647,27.4210132 20.3758007,26.5041821 21.1447207,25.7910913 C25.1943659,22.0218969 29.551579,18.5583129 33.9600535,15.2475341 C35.7029388,13.9232226 37.2920401,12.4461059 39.0349253,11.1217943 C39.906368,10.4087035 40.9315946,9.89935291 41.9055599,9.2881322 C42.2131279,9.08439197 42.5719572,8.88065173 42.9820479,9.08439197 C43.0845705,9.5428075 42.7257412,9.64467762 42.4694345,9.79748279 C37.1382561,13.2101317 32.1659069,17.0811962 27.5011258,21.3088061 C26.4758991,22.2256372 25.5019338,23.1424682 24.3229232,23.8555591 C22.426254,24.9761303 20.9396753,26.6060522 19.4018354,28.0831689 C18.9917447,28.4397144 18.6841768,28.8981299 18.0177795,29 Z" id="Path"></path>
                <path d="M22,27.8972465 C22.7913669,26.6128274 24.1630695,25.842176 25.323741,24.9173942 C30.3884892,20.85863 35.5059952,16.9026192 40.5179856,12.7924782 C41.2038369,12.2273338 42.0479616,11.7649429 42.7865707,11.2511753 C43.1031175,11.0456682 43.4724221,10.8915379 44,11.097045 C43.8417266,11.6621894 43.3669065,11.8676964 42.9448441,12.1245803 C37.352518,16.080591 31.8657074,20.0879785 26.9064748,24.8146407 C26.4316547,25.2256548 25.9568345,25.6366689 25.4292566,25.9963062 C25.4292566,25.7394224 25.3764988,25.5339154 25.059952,25.6880457 C24.7434053,25.842176 24.6378897,26.1504365 24.5323741,26.4586971 L24.5851319,26.4073203 C24.0047962,26.4586971 23.6354916,26.8183345 23.2661871,27.126595 C22.8441247,27.4348556 22.5803357,27.8972465 22.0527578,28 L22,27.8972465 Z" id="Path"></path>
                <path d="M9,30.9852062 C9.60958891,29.9996354 10.4223741,29.3771696 11.1335612,28.7547038 C13.2163233,26.8873065 15.0958891,24.8124206 17.0770531,22.841279 C17.2802494,22.6337904 17.4834457,22.3744296 17.686642,22.2706853 C21.1409791,20.1957994 24.1889237,17.5503198 27.084471,14.7492239 C27.744859,14.1267581 28.4560461,13.6080366 29.065635,12.8818265 C29.5228267,12.3112329 30.2340137,12.1037443 30.9452008,12 C31.097598,12.2593607 30.8944017,12.4149772 30.7928036,12.4668493 C29.065635,13.1411873 28.2020507,14.8529681 26.7796766,15.8904111 C25.3573024,16.9278541 24.1381246,18.2246578 22.9189468,19.4695893 C22.5125542,19.8845665 22.1061616,20.2995437 21.3949745,20.3514158 C20.7345865,20.4551601 20.2265958,21.1294981 19.718605,21.5963474 C16.5182632,24.3974434 13.3179215,27.3022837 10.371575,30.3627404 C10.0667806,30.6221012 9.81278521,31.0889505 9,30.9852062 Z" id="Path"></path>
                <path d="M24,20 C25.0956039,18.8789331 26.1912079,18.0126541 27.2868118,17.1463751 C30.6779669,14.4965806 33.8082639,11.4900829 37.0950757,8.7383732 C38.816739,7.31156076 40.5384024,5.98666349 42.3122373,4.66176622 C42.7817819,4.3050631 43.2513264,3.84644482 43.9817291,4.05027517 C44.0860723,4.55985104 43.720871,4.66176622 43.4600129,4.86559656 C37.5124486,9.1460339 31.8779141,13.7831743 26.5564092,18.7260603 C25.8781782,19.3375514 25.1999472,19.8980848 24,20 Z" id="Path"></path>
                <path d="M35.85,27.9480767 C37.6,27.2081237 38.95,25.8867791 40.55,24.8825572 C41.8,24.0897505 42.95,23.2440899 44.1,22.2927218 C44.3,22.1341605 44.55,21.9227453 45,22.0284529 C44.75,22.6626983 44.2,22.9269672 43.75,23.2440899 C42.65,24.0368967 41.65,24.8825572 40.65,25.7810715 C40.1,26.2567556 39.65,26.8381472 38.75,26.7324396 C38.3,26.6795859 37.7,27.3138313 37.25,27.6838078 C35.2,29.2694213 33.15,30.8550348 31.1,32.4935021 C30.8,32.757771 30.5,33.1806012 30,32.9163323 C30.4,31.8064029 33.1,29.322275 35.05,28.2651994 C35.4,28.3709069 35.65,28.1594918 35.85,27.9480767 Z" id="Path"></path>
                <path d="M41.9136468,21 C42.0190436,21.2105263 42.071742,21.4210526 41.80825,21.6315789 C41.1758693,22.0526316 40.5434885,22.5789474 39.9111077,23 C36.0114262,25.5263158 32.3225383,28.3157895 28.6336504,31.1052632 C28.1593648,31.4736842 27.6323808,31.8421053 27,32 C27.4215872,30.6842105 28.3701584,29.7894737 29.4768247,29.6315789 C29.7930151,29.5789474 30.0038087,29.4210526 30.2673007,29.2631579 C34.008887,26.5263158 37.6977749,23.6842105 41.7028532,21.3684211 C41.7555516,21.2631579 41.80825,21.1052632 41.9136468,21 C41.9136468,21 41.9136468,21 41.9136468,21 Z" id="Path"></path>
                <path d="M40,29.0259937 C39.65,28.5795356 39.35,28.9267808 39.05,29.0756001 C37.05,30.0677292 35.2,31.4567099 33.25,32.5480519 C32.9,32.7464777 32.6,33.0441164 32,32.99451 C32.1,32.3000196 32.7,31.8039551 33.05,31.7543486 C34.4,31.6551357 35.25,30.6630066 36.25,30.0677292 C38.75,28.5795356 41.45,27.4881936 43.9,26 C43.9,26 44,26.0496065 44,26.0496065 C43.6,26.8433097 41.35,28.5299291 40,29.0259937 C40,29.0756001 40,29.0259937 40,29.0259937 Z" id="Path"></path>
                <path d="M36,21 C36.3763441,20.2651604 36.9677419,19.740275 37.1827957,18.9529468 C37.2365591,18.8479697 37.344086,18.6905041 37.4516129,18.6380156 C40.1935484,16.8009166 42.7204301,14.7013748 45.516129,13.0217415 C45.5698925,12.9692529 45.6774194,13.0217415 46,13.07423 C44.4946237,14.8063519 42.5591398,15.7511457 40.9462366,17.0633593 C39.3870968,18.4280614 37.6666667,19.6877864 36,21 Z" id="Path"></path>
                <path d="M30,24.2070058 C28.0732785,26.018307 26.0971539,27.8296082 24.1704324,29.5891579 C23.4293856,30.2619269 22.737742,30.9346959 21.9966953,31.5557135 C21.7496797,31.7627193 21.453261,32.2284825 21.1074392,31.8662223 C20.8110205,31.5557135 21.2062454,31.2969562 21.3544548,30.9864474 C21.5026641,30.7794416 21.6508735,30.6241872 21.7496797,30.4171813 C21.9472922,30.0549211 22.0460984,29.8479152 22.4907264,30.2101755 C22.737742,30.4171813 22.9847576,29.9514182 23.2317732,29.7444123 C25.1584947,28.0366141 27.0358131,26.3288158 28.9625346,24.6210175 C29.2095502,24.3622602 29.555372,24.2070058 29.8023875,24 C29.8517907,24.1035029 29.9505969,24.1552544 30,24.2070058 Z" id="Path"></path>
                <path d="M37.1310449,21.8270052 C37.0292826,21.5210066 37.2836883,21.419007 37.4872129,21.3170075 C39.4715777,19.9910133 41.4559426,18.6650192 43.3894262,17.2370255 C43.5929508,17.0840262 43.7455943,16.9310269 44,17.0330264 C43.7964754,17.5940239 43.7964754,17.5940239 41.964754,19.0220176 C41.0997745,19.6850147 40.2856761,20.3990115 39.4715777,21.0620086 C38.6574794,21.7250056 37.8942621,22.3370029 37.0801637,23 C36.7748768,22.4390025 37.4363318,22.4390025 37.4872129,22.1330038 C37.5380941,21.7760054 37.2328072,21.878005 37.1310449,21.8270052 L37.1310449,21.8270052 Z" id="Path"></path>
                <path d="M23,13.1007194 C21,15.0647482 18.6842105,16.7266187 16.6315789,18.6402878 C15.9473684,19.2446043 15.2105263,19.7985612 14.3157895,20 C14.2105263,20 14.1578947,20 14,19.9496403 C16.2631579,17.8848921 18.7368421,16.0215827 21.1578947,14.2086331 C21.7368421,13.8057554 22.1578947,13.1510791 22.9473684,13 L23,13.1007194 Z" id="Path"></path>
                <path d="M22,12.9502947 C23.9237852,11.1609045 26.0124662,9.57033534 28.1561125,8.02947151 C28.5408695,7.7312398 28.9805919,7.48271338 29.3653489,7.18448167 C29.5302448,7.0850711 29.6951406,6.88624996 29.8600365,7.0850711 C30.0798977,7.28389224 30.0249324,7.53241866 29.8050712,7.68153452 C29.5852101,7.88035566 29.3653489,8.0791768 29.1454877,8.22829265 C26.9468761,9.76915648 24.6932992,11.3100203 22.4397223,12.8508841 C22.3297917,12.9502947 22.1648959,12.9502947 22,13 C22.1099306,13 22,12.9502947 22,12.9502947 Z" id="Path"></path>
                <path d="M6,26.9763919 C6.92981324,26.5020162 7.54968874,25.6059733 8.27287682,24.8680556 C9.51262781,23.6557623 10.7523788,22.443469 12.0437861,21.3365925 C12.2504113,21.1257588 12.5086927,20.7568 12.8702868,21.2311756 C13.1802245,21.6528429 12.8702868,21.8109681 12.6120053,22.0745101 C12.198755,22.4961774 11.8371609,22.9178446 11.4239106,23.2868035 C11.1656291,23.5503455 11.0106603,24.0774296 10.4424411,23.6557623 C10.2358159,23.4976371 9.97753444,23.9193043 9.77090927,24.130138 C8.94440861,24.920764 8.06625165,25.7113901 7.29140728,26.5020162 C6.87815695,26.8182666 6.56821921,27.0818087 6,26.9763919 C6,26.9763919 6,26.9763919 6,26.9763919 Z" id="Path"></path>
                <path d="M24,21.21875 C21.7173913,23.4609375 19.4855072,25.7578125 17.2028986,28 C17.1521739,27.9453125 17.0507246,27.8359375 17,27.78125 C19.1304348,25.3203125 21.3623188,23.078125 23.7971014,21 C23.8478261,21.0546875 23.8985507,21.109375 24,21.21875 Z" id="Path"></path>
                <path d="M35.8358209,27.6934267 C35.6268657,27.8811637 35.3656716,28.0689008 35,27.9750323 C35.4701493,27.1771497 36.3059701,26.7547413 37.0373134,26.2384644 C38.238806,25.3467133 39.4925373,24.4549623 40.7462687,23.6101455 C41.1119403,23.3754741 41.4253731,23 42,23.0469343 L41.9477612,23 C40.380597,24.6426993 38.3432836,25.7221875 36.4626866,27.0832812 C36.2014925,27.224084 35.8880597,27.3648868 35.8358209,27.6934267 Z" id="Path"></path>
                <path d="M26,3 C25.6228654,3.96599311 24.7608434,4.30693185 24.0604506,4.93198622 C23.252305,5.61386371 22.3902831,6.23891807 21.5821375,6.92079556 C21.4205084,7.03444181 21.2050029,7.03444181 21.0433738,6.86397244 C20.935621,6.63667994 21.0433738,6.46621057 21.2050029,6.35256432 C22.7674177,5.10245559 24.2220797,3.85234686 26,3 Z" id="Path"></path>
                <path d="M22,28.1126761 C20.8947368,29.6338028 19.5789474,30.8169014 18,32 C18.1578947,30.4788732 19.2105263,29.4084507 21.9473684,28 C21.9473684,28.056338 22,28.1126761 22,28.1126761 Z" id="Path"></path>
                <path d="M8,17 C9.93220339,15.2323232 11.8644068,13.7171717 14,12 C13.3389831,13.1111111 9.01694915,16.6464646 8,17 Z" id="Path"></path>
                <path d="M34,4 C32.8421053,4.79234396 32.1052632,6.17894589 30,5.9808599 C31.4210526,5.08947295 32.3684211,4 34,4 Z" id="Path"></path>
                <path d="M9,28.0549597 C8.06493506,28.469106 7.49350649,29.2973986 6.71428571,29.8956099 C6.19480519,30.3097562 5.72727273,30.815935 5,31 C5,30.3557724 5.83116883,29.1133336 6.2987013,29.2053661 C7.23376623,29.3894311 7.44155844,28.6071548 8.01298701,28.3770735 C8.32467532,28.1930085 8.53246753,27.8708947 9,28.0549597 C8.94805195,28.0549597 9,28.0549597 9,28.0549597 Z" id="Path"></path>
                <path d="M41,4 C40.2911392,4.59574468 39.9873418,5.10638298 38.9746835,5.0212766 C38.3670886,4.9787234 37.6582278,5.65957447 37,6 C37.6582278,4.93617021 39.3291139,4 41,4 Z" id="Path"></path>
                <path d="M42.0203735,23 C42.1578947,22.45 42.5704584,22.15 42.8913413,21.75 C42.9830221,21.65 43.0747029,21.5 43.1663837,21.4 C43.8998302,20.35 43.9456706,20.3 45,20 C44.8166384,20.85 43.3497453,22.3 42.0203735,23 C41.9745331,22.95 42.0203735,23 42.0203735,23 Z" id="Path"></path>
                <path d="M35,24 C33.423913,25.2352941 31.8478261,26.5294118 30,28 C30.5978261,26.7647059 32.5543478,25.1176471 35,24 Z" id="Path"></path>
                <path d="M13,30 C13.5510204,29.468349 14.1020408,28.8883661 14.5918367,28.3567151 C15.0204082,27.8733961 15.5102041,27.921728 16,28.2600513 C14.9591837,29.3716852 14.3469388,29.8066724 13,30 Z" id="Path"></path>
                <path d="M13,10.09375 C11.8205128,11.265625 10.3333333,12.0625 9,13 C10.1282051,11.78125 11.4102564,10.75 12.9487179,10 C12.9487179,10 12.9487179,10.046875 13,10.09375 Z" id="Path"></path>
                <path d="M17,4 C16.3371839,4.81437126 15.4534291,5.38922156 14.5696743,5.91616766 C14.4039703,6.01197605 14.1830316,6.05988024 14.0725623,5.86826347 C13.9620929,5.7245509 13.9620929,5.53293413 14.1830316,5.38922156 C15.0115517,4.86227545 15.8400718,4.19161677 17,4 Z" id="Path"></path>
                <path d="M9.07969606,27 C8.91858768,26.7260274 9.02599327,26.5068493 9.18710165,26.2876712 C10.3685631,25.0821918 11.6037274,23.9863014 13,23 C11.8722413,24.5342466 10.4222659,25.739726 9.07969606,27 L9.07969606,27 Z" id="Path"></path>
                <path d="M15,8 C14.5555556,8.97142857 13.8,9.48571429 13.0888889,10 C13.0444444,9.94285714 13.0444444,9.94285714 13,9.88571429 C13.5333333,9.02857143 14.2444444,8.4 15,8 L15,8 Z" id="Path"></path>
                <path d="M10,17 C9.64705882,18.0625 8.76470588,18.5 8,19 C8.58823529,18.25 9,17.25 10,17 L10,17 Z" id="Path"></path>
                <path d="M29,25 C29.6875,24.6666667 30.375,24.3333333 31,24 C30.5625,24.4444444 30,24.8888889 29,25 Z" id="Path"></path>
                <path d="M29,29 C29.3448276,28.4 29.6206897,28.16 30,28 C29.862069,28.44 29.5862069,28.72 29,29 Z" id="Path"></path>
                <path d="M36,29 C36.3333333,28.4230769 37.2666667,28.2692308 38,28 C37.4666667,28.3846154 36.9333333,28.8461538 36,29 L36,29 Z" id="Path"></path>
                <path d="M10.0282686,17 C10.5371025,16.5769231 11.1731449,16.1923077 12,16 C11.4275618,16.4230769 10.9187279,16.8846154 10.0282686,17 C9.96466431,17 10.0282686,17 10.0282686,17 Z" id="Path"></path>
                <path d="M33.797381,21 C33.9213383,21.1875 34.1072743,21.4375 33.9213383,21.625 C33.4255091,22.125 32.8677012,22.625 32,23 C32.4958292,21.9375 33.3635304,21.6875 33.797381,21 L33.797381,21 Z" id="Path"></path>
                <path d="M19.9698113,5 C19.4943396,5.52631579 18.6792453,5.68421053 18,6 C18.4754717,5.42105263 19.0867925,5 19.9698113,5 C20.0377358,5 19.9698113,5 19.9698113,5 Z" id="Path"></path>
                <path d="M37,22 C36.4666667,22.4761905 35.9333333,22.9047619 35,23 C35.4666667,22.4761905 36.1333333,22.1428571 37,22 C37,22.047619 37,22 37,22 Z" id="Path"></path>
                <path d="M17,26 C16.9,26.48 16.5,26.76 16,27 C16.2,26.6 16.35,26.16 17,26 L17,26 Z" id="Path"></path>
                <path d="M36.9771429,29 C36.8742857,29.5555556 36.4114286,29.7222222 36,30 C36.36,29.3333333 36.36,29.3333333 36.9771429,29 C37.0285714,29.0555556 36.9771429,29 36.9771429,29 Z" id="Path"></path>
                <path d="M14,22 C14.4375,21.5714286 14.75,21.2857143 15,21 C14.75,21.5714286 14.75,21.5714286 14,22 Z" id="Path"></path>
                <path d="M33,9 C32.6842105,9.61111111 32.4210526,9.83333333 32,10 C32.1578947,9.61111111 32.4210526,9.33333333 33,9 Z" id="Path"></path>
                <path d="M18,19 C17.95,19.6 17.3,19.65 17,20 C17.15,19.45 17.45,19.1 18,19 L18,19 Z" id="Path"></path>
                <path d="M24.019802,9 C24.1534653,8.36842105 24.5544554,8.15789474 25,8 C24.7326733,8.42105263 24.5544554,8.94736842 24.019802,9 C23.9752475,8.94736842 24.019802,9 24.019802,9 Z" id="Path"></path>
                <path d="M9,23 C9.30769231,22.6666667 9.61538462,22.4 10,22 C9.69230769,22.7333333 9.69230769,22.7333333 9,23 Z" id="Path"></path>
                <path d="M9,20 C9,19.55 9.5,19.45 10,19 C9.78571429,19.65 9.35714286,19.75 9,20 Z" id="Path"></path>
                <path d="M19,8.00843501 C18.875,8.77920229 18.625,9.16458593 18,8.93335575 C18.25,8.39381865 18.4375,7.93135828 19,8.00843501 Z" id="Path"></path>
                <path d="M5,24 C5,23.4285714 5.54545455,23.3571429 6,23 C5.81818182,23.5 5.63636364,23.8571429 5,24 Z" id="Path"></path>
                <path d="M32,23 C32.2105263,22.4 32.4736842,22.0666667 33,22 C32.7368421,22.6 32.5263158,22.9333333 32,23 Z" id="Path"></path>
                <path d="M43,21.1634691 C42.8666667,21.3571412 42.7333333,21.6476494 42.6,21.8413215 C42.0666667,22.0349937 41.4666667,22.1318297 41,21.6476494 C41,21.6476494 41,21.6476494 41,21.6476494 C41.6666667,21.7444855 42.2666667,20.5824528 43,21.1634691 Z" id="Path"></path>
                <path d="M33.0438894,35 C32.8048618,34.5454545 33.6016206,34.5 34,34 C33.9203241,34.6818182 33.5219447,34.8636364 33.0438894,35 C32.9642135,35 33.0438894,35 33.0438894,35 Z" id="Path"></path>
                <path d="M18,18.9939558 C18.1111111,18.2839874 18.5,18.0709968 19,18 C18.7777778,18.4969779 18.6111111,19.0649527 18,18.9939558 C18,18.9939558 18,18.9939558 18,18.9939558 Z" id="Path"></path>
                <path d="M17.0073154,26 C16.930955,25.5 17.4654775,25.2222222 18,25 C17.8472793,25.3888889 17.7709189,25.8333333 17.0073154,26 C17.0073154,25.9444444 17.0073154,26 17.0073154,26 Z" id="Path"></path>
                <path d="M13,15 C12.8067672,15.5 12.5169179,15.9 12.0338359,16 C11.840603,15.2 12.5169179,15.2 13,15 Z" id="Path"></path>
                <path d="M33.0228571,20.8311431 C33.4342857,21.0158416 33.5371429,20 34,20 C33.7428571,20.7387939 33.4857143,21.2928893 33.0228571,20.8311431 C32.9714286,20.8311431 33.0228571,20.8311431 33.0228571,20.8311431 Z" id="Path"></path>
                <path d="M15,8 C15.2222222,7.53333333 15.5,7.13333333 16,7 C15.8888889,7.66666667 15.5,7.93333333 15,8 C15,8 15,8 15,8 Z" id="Path"></path>
                <path d="M29,26 C28.6956522,26.5263158 28.4347826,26.7368421 28,27 C28.2173913,26.4210526 28.4347826,26.1578947 29,26 Z" id="Path"></path>
                <path d="M19,26.9916822 C19.25,26.610266 19.4166667,26.1525665 20,26 C19.9166667,26.610266 19.75,27.0679654 19,26.9916822 Z" id="Path"></path>
                <path d="M6.03880767,26.9555336 C6.23880767,26.5555336 6.53880767,25.9555336 6.83880767,26.0555336 C7.23880767,26.2555336 6.53880767,26.4555336 6.43880767,26.7555336 C6.43880767,26.8555336 6.23880767,26.8555336 6.03880767,26.9555336 Z" id="Path"></path>
                <path d="M8.97297297,27.0240712 C8.72972973,27.4349886 8,27.4349886 8,28 C8,28 8,28 8,28 C8.12162162,27.4863533 8,26.8699772 8.97297297,27.0240712 C9.03378378,27.0240712 8.97297297,27.0240712 8.97297297,27.0240712 Z" id="Path"></path>
                <path d="M28,12.2010954 C27.7113249,12.4010954 27.5188748,12.7010954 27.2301996,12.9010954 C27.0377496,13.0010954 26.9415245,12.9010954 27.0377496,12.7010954 C27.1339746,12.5010954 27.3264247,12.3010954 27.5188748,12.1010954 C27.6150998,12.0010954 27.8075499,12.1010954 28,12.2010954 Z" id="Path"></path>
                <path d="M24.1094717,26.4285714 C24.3834804,26.2857143 24.7259913,26.1428571 25,26 C24.8629956,26.2857143 24.7259913,26.5714286 24.5204848,26.7857143 C24.3834804,26.9285714 24.1779739,26.9285714 24.0409695,27 C23.9724673,26.7142857 23.9724673,26.5 24.1779739,26.2857143 C24.1779739,26.3571429 24.1094717,26.4285714 24.1094717,26.4285714 Z" id="Path"></path>
                <path d="M6,7 C5.47619048,7.48275862 4.9047619,7.89655172 4,8 C4.71428571,7.68965517 5.14285714,7.13793103 6,7 Z" id="Path"></path>
            </g>
        </g>
    </g>
</svg>